
<!DOCTYPE svg PUBLIC "-//W3C//DTD SVG 20010904//EN"
              "http://www.w3.org/TR/2001/REC-SVG-20010904/DTD/svg10.dtd">

<svg xmlns = "http://www.w3.org/2000/svg"
     viewBox = "0 0 1000 150" style = "background: Black;">
  
   <g id = "InsightsSiteTitle" 
      stroke = "White" stroke-width = "2" fill = "White"
      transform = "scale(.30) translate(0,-650)">
         <path id = "LetterICapital"
               d = "M 113.50,112.50
                  V 282 H 142 V 112.50 H 110.50" />
         <use href = "#LetterN" x = "-2500"  />             
         <path id = "LetterT" 
               d = "M 635.50,121.25
                     V 160 H 618.25 V 184 H 635.50 V 249.50
                     C 638.5,295.25 684,284.75 700.25,277.5 V 261
                     C 682.75,264.25 662.25,268.5 664.25,241.5
                     V 184 C 678,183.25 688.5,183 696.25,176.5
                     V 160.25 H 665 V 121.25 H 632.50" />
         <use href = "#LetterT" x = "1612"  />

         <path id = "LetterH"
               transform = "translate(-4,0)"
               d = "M 524,112.75 524,281.5
                     H 552.25 V 182.75
                     C 560.75,174.5 581.5,176.75 581.75,190.75
                     V 281.75 H 610.25 V 185.67 
                     C 606,151.67 568.67,152.67 552.33,160.67
                     V 112.75 H 521" />

         <path id = "LetterG"
               d = "M 500.75,164.75
                     C 397.25,127.00 411.00,219.00 412.00,244.75
                        420.75,294.75 466.25,285.00 471.25,278.75
                        474.00,312.00 449.00,313.75 420.00,307.75
                        420.00,307.75 420.50,324.00 420.50,324.00
                        451.25,334.50 501.25,338.25 500.50,273.25
                        500.75,273.25 500.75,164.75 500.75,164.75 z
                     M 471.50,179.25
                     C 471.50,179.25 471.50,259.25 471.50,259.25
                        464.25,262.00 438.50,274.00 440.50,219.25
                        440.00,184.25 446.25,175.75 471.50,179.00 z" />

         <path id = "LetterM" transform = "translate(3,0)"
               d = "M 1136.30,158.86
                  V 281 H 1163.30 V 183.00 
                  C 1166.86,175.14 1190.86,173 1191.00,194
                  V 281.15 H 1218.30 V 183.43 
                  C 1218.86,174.29 1244.30,172.50 1245.14,190.86
                  V 281 H 1272.30 V 185
                  C 1268.71,149.14 1226.33,152 1206.50,165.33
                  C 1199,156.33 1178.33,152.33 1162.86,162.86
                  L 1162.85,162.85 1158,158 H 1133.00" />

         <g id = "LetterO" transform = "scale(.138) translate(7350,1050)"
            stroke = "white" stroke-width = "45" fill = "white">
            <path id = "LetterO — OuterCurve"
                  d = "M 426.00,998.00
                     C -10.00,1035.00 -10.00,60.00 425.00,91.00
                        870.00,21.00 890.00,1045.00 425.00,998.00" />

            <path id = "LetterO — InnerCurve" fill = "Black" 
                  stroke-width = "1"
                  d = "M 426.00,249.00
                     C 590.00,205.00 624.00,836.00 432.00,856.00
                        276.00,860.00 254.00,240.00 430.00,248.00" />

            <path id = "Letter O — Patches — BundledTogether"
                  stroke-width = "8"
                  d = "M 335.00,115.00
                     C 335.00,115.00 400.00,86.00 520.00,107.00
                     M 365.00,983.00
                     C 365.00,983.00 450.95,994.00 510.00,983.00" />

            <path id = "Letter O — Patches — BundledTogether"
                  stroke-width = "8"
                  d = "M 400.00,252.00
                     C 400.00,252.30 460.00,246.00 466.00,254.00
                     M 360.00,1002.00
                     C 360.00,1002.00 430.50,1020.00 510.00,1002.00
                     M 350.00,90.00
                     C 360.00,83.00 460.00,70.00 520.00,88.00" />
         </g>

         <path id = "LetterR"
               d = "M 956.30,159.14
                     V 282 H 985 V 190.85 
                     C 985.14,179.71 1006.86,184.57 1023.14,183.43
                     V 158.95 
                     C 1004,158.86 997.43,157.14 982.57,166.29
                     V 158.95 H 953.00" />
      
         <g transform = "translate(30,0)">
            <path id = "LetterCCapital"
                  d = "M 2446.67,132.33
                  C 2446.67,132.33 2446.67,116.00 2446.67,116.00
                        2377.33,96.67 2358.33,129.00 2356.33,188.67
                        2352.67,302.67 2414.32,285.93 2449.00,278.33
                        2449.00,278.33 2448.67,260.67 2448.67,260.67
                        2412.67,265.67 2382.95,274.25 2385.33,191.67
                        2387.00,151.67 2386.00,122.33 2447.00,133.00 z" />
            
            <use href = "#LetterO" x = "1435"  />
            <use href = "#LetterR" x = "1620"  />
            
            <path id = "LetterN"
                  transform = "translate(20,0)"
                  d = "M 2661.50,158.5 
                     H 2639.65 V 282 H 2666.00 V 183
                     C 2672.89,175.25 2698.89,175.25 2697.50,193.25
                     V 281.50 H 2726.65 V 193 
                     C 2729.39,155.5 2684.64,148.5 2665.55,162.90
                     L 2665.50,163.00 2661.50,158.50" />
            <use href = "#LetterE" x = "925.0" />
            <use href = "#LetterR" x = "1919"  />
         </g>

         <path id = "LetterFCapital"
               d = "M 945.50, 112.50 H 860 V 281 H 888 
                     V 208 H 930 V 185 H 888 V 137 
                     H 945 V 110.0" />

         <path id = "LetterI"
               d = "M 365.00,159
                  V 282.25 H 395.00 V 159 H 361.50 
                  M 395.00,142.00
                  V 110.00 H 365.00 V 142.00 H 398.00" />

         <path id = "LetterS"
               d = "M 342.50,178.50
                  C 342.50,178.50 342.50,163.00 342.50,163.00
                     329.00,153.00 254.50,144.75 267.50,201.50
                     279.00,234.25 315.00,225.25 320.75,246.25
                     319.50,271.00 282.50,261.50 267.50,261.50
                     267.50,261.50 268.00,278.50 268.00,278.50
                     295.75,286.50 353.50,294.25 348.50,242.00
                     345.00,220.75 330.75,214.75 303.75,202.75
                     285.25,193.75 290.25,169.00 342.25,178.75 z" />
         <use href = "#LetterS" x = "442" />

         <g id = "Different" >
            <g id = "LetterDCapital">
               <path d = "M 1525.71,115.71
                        C 1525.71,115.71 1526.00,278.29 1526.00,278.29
                           1579.71,294.29 1602.29,272.57 1605.71,271.14
                           1637.14,238.29 1625.14,143.71 1612.29,131.43
                           1596.57,108.57 1562.00,105.71 1526.29,115.71 z" />
               <path fill = "black" stroke = "Black" stroke-width = "5"
                     d = "M 1554.29,133.71
                           C 1554.29,133.71 1554.86,260.57 1554.86,260.57
                           1603.43,268.00 1595.14,212.86 1596.29,188.29
                           1595.14,144.00 1585.14,130.00 1554.57,133.71 z" />
            </g>
            <use href = "#LetterI" x = "1280" />
            <path id = "LetterF"
                  d = "M 1763.50,118.85
                        C 1737.14,107.43 1695.14,107.71 1700,160.30
                        H 1686 V 182.35 H 1700 V 281.50 H 1728.50 V 182.35
                        C 1752.35,180.10 1757.43,181.70 1755.70,160.60 
                        H 1728.60 C 1726.86,140.29 1728,128.86 1764,135.14
                        V 117.00 z" />
            <use href = "#LetterF" x = "82"  />
            <use href = "#LetterE" x = "183" />
            <use href = "#LetterR" x = "988" />
            <g id = "LetterE">
               <path id = "LetterEOuter" transform = "translate(3,0)" 
                     d = "M 1864.81,231.07
                        C 1864.81,230.79 1923.10,231.07 1923.10,231.07
                           1926.81,166.50 1902.52,155.64 1877.95,156.21
                           1837.95,157.64 1835.71,197.52 1836.00,220.67
                           1833.71,303.52 1900.95,283.43 1922.38,277.43
                           1922.38,277.43 1921.81,262.00 1921.81,262.00
                           1905.24,264.29 1862.01,271.75 1864.81,231.36
                           M 1860.50,209.52 z" />
               <path id = "LetterEEye" fill = "black" stroke = "Black"
                     stroke-width = "1" transform = "translate(3,1)"
                     d = "M 1860.00,209.50
                        C 1860.00,209.52 1896.67,209.67 1896.67,209.67
                           1897.81,203.67 1893.90,176.67 1879.90,177.52
                           1866.19,176.67 1862.62,202.67 1863.76,209.52
                           M 2084.00,214.67 z" />
            </g>
            <use href = "#LetterN" x = "-535"  />         
         </g>
         <path id = "LetterACapital" 
               d = "M 1380.29,112.29
                  L 1340.00,281.00 
                  H 1368.35                    
                  L 1378.29,240.57 H 1417.75 L 1428.29,281.71
                  H 1456.29 L 1416.29,112.57 H 1378.00" />
         <polygon points = "1398,151.0 1382.00,215.50 
                            1413.57,215.50 1398,151.00" 
                  stroke-width = "4" stroke = "Black" fill = "black" />
   </g>
  
</svg>
