<!DOCTYPE svg PUBLIC "-//W3C//DTD SVG 20010904//EN"
              "http://www.w3.org/TR/2001/REC-SVG-20010904/DTD/svg10.dtd">

<svg xmlns = "http://www.w3.org/2000/svg"
     viewBox = "0 0 1500 150" width = "1000px" height = "200px"
     style = "background: Black; background-color: Black;">
   <g id = "Insight" stroke = "White" stroke-width = "2" 
      fill = "White" transform = "scale(.45) translate(0,-650)"
      style = "background: Black;">

      <path id = "LetterICapital"
            d = "M 113.50,112.50
               V 282 H 142 V 112.50 H 110.50" />

      <path id = "LetterN"
            transform = "translate(-2478,0)"
            d = "M 2661.50,158.5 
               H 2639.65 V 282 H 2666.00 V 183
               C 2672.89,175.25 2698.89,175.25 2697.50,193.25
               V 281.50 H 2726.65 V 193 
               C 2729.39,155.5 2684.64,148.5 2665.55,162.90
               L 2665.50,163.00 2661.50,158.50" />

      <path id = "LetterS"
            d = "M 342.50,178.50
                  C 342.50,178.50 342.50,163.00 342.50,163.00
                     329.00,153.00 254.50,144.75 267.50,201.50
                     279.00,234.25 315.00,225.25 320.75,246.25
                     319.50,271.00 282.50,261.50 267.50,261.50
                     267.50,261.50 268.00,278.50 268.00,278.50
                     295.75,286.50 353.50,294.25 348.50,242.00
                     345.00,220.75 330.75,214.75 303.75,202.75
                     285.25,193.75 290.25,169.00 342.25,178.75 z" />
                     
      <path id = "LetterI"
            d = "M 365.00,159
                  V 282.25 H 395.00 V 159 H 361.50 
                  M 395.00,142.00
                  V 110.00 H 365.00 V 142.00 H 398.00" />

      <path id = "LetterG"
            d = "M 500.75,164.75
                  C 397.25,127.00 411.00,219.00 412.00,244.75
                     420.75,294.75 466.25,285.00 471.25,278.75
                     474.00,312.00 449.00,313.75 420.00,307.75
                     420.00,307.75 420.50,324.00 420.50,324.00
                     451.25,334.50 501.25,338.25 500.50,273.25
                     500.75,273.25 500.75,164.75 500.75,164.75 z
                  M 471.50,179.25
                  C 471.50,179.25 471.50,259.25 471.50,259.25
                     464.25,262.00 438.50,274.00 440.50,219.25
                     440.00,184.25 446.25,175.75 471.50,179.00 z"/>
                     
      <path id = "LetterH"
            transform = "translate(-4,0)"
            d = "M 524,112.75 524,281.5
                  H 552.25 V 182.75
                  C 560.75,174.5 581.5,176.75 581.75,190.75
                  V 281.75 H 610.25 V 185.67 
                  C 606,151.67 568.67,152.67 552.33,160.67
                  V 112.75 H 521" />
      <path id = "LetterT" 
            d = "M 635.50,121.25
                  V 160 H 618.25 V 184 H 635.50 V 249.50
                  C 638.5,295.25 684,284.75 700.25,277.5 V 261
                  C 682.75,264.25 662.25,268.5 664.25,241.5
                  V 184 C 678,183.25 688.5,183 696.25,176.5
                  V 160.25 H 665 V 121.25 H 632.50" />
      <use href = "#LetterS" x = "442" />
   </g>
</svg>
